<svg width="119" height="21" viewBox="0 0 119 21" fill="none" xmlns="http://www.w3.org/2000/svg">
<g id="Group 6">
<path id="Star 1" d="M10.5 0L12.8574 7.25532H20.4861L14.3143 11.7394L16.6717 18.9947L10.5 14.5106L4.32825 18.9947L6.68565 11.7394L0.513906 7.25532H8.1426L10.5 0Z" fill="#FFD600"/>
<path id="Star 2" d="M37.5 0L39.8574 7.25532H47.4861L41.3143 11.7394L43.6717 18.9947L37.5 14.5106L31.3283 18.9947L33.6857 11.7394L27.5139 7.25532H35.1426L37.5 0Z" fill="#FFD600"/>
<path id="Star 3" d="M64.5 0L66.8574 7.25532H74.4861L68.3143 11.7394L70.6717 18.9947L64.5 14.5106L58.3283 18.9947L60.6857 11.7394L54.5139 7.25532H62.1426L64.5 0Z" fill="#FFD600"/>
<path id="Star 4" d="M91.5 0L93.8574 7.25532H101.486L95.3143 11.7394L97.6717 18.9947L91.5 14.5106L85.3283 18.9947L87.6857 11.7394L81.5139 7.25532H89.1426L91.5 0Z" fill="#FFD600"/>
<path id="Star 5" d="M118.5 0V7.25532L118.5 9V11.7394V13L118.5 14.5106L112.328 18.9947L114.686 11.7394L108.514 7.25532H116.143L118.5 0Z" fill="#FFD600"/>
</g>
</svg>
